# Blender v2.93.0 OBJ File: ''
# www.blender.org
mtllib palm_tree.mtl
o Palm_15_4_Mesh.225
v -16.913654 -32.539490 4.505469
v -10.248285 -30.482487 6.209237
v -8.971988 -31.741171 6.248002
v -8.944954 -31.784077 5.830806
v -11.440142 -30.157623 4.454580
v -9.972442 -30.601547 4.865807
v -14.765957 -30.268959 5.403052
v -14.417763 -30.358650 4.161132
v -13.323311 -29.971592 6.001750
v -12.003177 -30.013363 6.109815
v -12.908836 -30.103298 4.143614
v -12.505550 -36.900185 0.821728
v -10.200114 -31.369631 4.778897
v -9.111553 -31.728031 6.157776
v -8.773968 -31.811901 5.921926
v -9.717924 -32.000290 2.785247
v -9.001642 -31.522877 4.119163
v -12.443411 -33.728848 1.537508
v -11.283379 -33.803741 0.971500
v -12.076285 -32.620239 2.616536
v -11.331528 -31.932835 3.470344
v -10.406982 -32.787163 1.706940
v -6.474737 -37.685936 1.032877
v -8.800270 -31.693176 4.232872
v -9.133800 -31.764009 5.993116
v -8.730305 -31.773268 6.110291
v -6.882457 -32.238132 3.439213
v -7.523304 -31.581703 4.734871
v -7.400770 -34.570377 0.936209
v -6.230187 -34.389500 1.454538
v -8.146235 -33.384911 1.689229
v -8.427292 -32.527607 2.659907
v -6.380849 -33.184174 2.385591
v -1.155755 -33.638237 4.576886
v -7.837245 -31.017921 4.806867
v -9.015044 -31.832214 5.885956
v -8.851763 -31.683428 6.243483
v -5.976869 -30.257870 5.559331
v -7.479604 -30.477911 6.021590
v -3.438556 -31.543301 3.590151
v -3.190757 -31.004499 4.739037
v -4.990889 -31.204107 3.532722
v -6.218402 -30.977644 3.977809
v -4.525071 -30.420753 5.209377
v -3.106794 -34.364807 11.108725
v -7.306645 -31.009781 6.347812
v -8.849163 -31.802559 5.892990
v -9.045640 -31.719219 6.255033
v -6.838338 -30.576004 8.396569
v -8.091412 -30.668993 7.426272
v -3.715780 -31.906452 9.069309
v -4.512150 -31.545641 10.021811
v -4.594453 -31.379042 7.853635
v -5.683975 -31.063034 7.168614
v -5.695129 -30.867897 9.326402
v -8.747257 -32.041710 14.199369
v -8.251837 -30.516088 7.200207
v -8.756185 -31.780985 6.033848
v -9.168467 -31.737206 6.102629
v -9.586068 -29.811417 8.726032
v -9.619113 -30.360229 7.236727
v -7.938981 -30.049599 11.759745
v -9.220373 -29.887465 11.701472
v -7.641703 -29.911577 10.203896
v -7.850595 -30.001343 8.898338
v -9.533910 -29.664417 10.220150
v -14.510130 -33.760521 11.669937
v -9.747909 -30.660988 7.279564
v -8.807868 -31.725281 6.184885
v -9.126727 -31.805714 5.923193
v -11.893743 -30.677692 7.278366
v -10.672975 -30.875650 6.282948
v -12.946776 -31.142069 10.541571
v -13.753478 -31.307831 9.544874
v -11.704757 -30.593914 9.713921
v -10.877409 -30.445778 8.689360
v -12.971204 -30.853867 8.310234
v -12.707420 -44.939323 7.642901
v -11.687920 -42.290680 7.512467
v -10.839972 -39.630726 7.272730
v -10.188480 -36.957817 6.907822
v -9.678640 -34.275574 6.452662
v -9.259340 -31.726326 5.911529
v -12.825628 -44.855984 7.994881
v -11.779982 -42.225773 7.786596
v -10.915710 -39.577328 7.498253
v -10.257648 -36.909054 7.113779
v -9.738056 -34.233685 6.629579
v -9.299666 -31.697895 6.031606
v -12.777816 -44.798550 8.368009
v -11.742744 -42.181042 8.077194
v -10.885076 -39.540527 7.737325
v -10.229671 -36.875446 7.332109
v -9.714024 -34.204819 6.817125
v -9.283356 -31.678303 6.158897
v -12.573452 -44.778400 8.688381
v -11.583583 -42.165348 8.326706
v -10.754135 -39.527618 7.942596
v -10.110090 -36.863655 7.519572
v -9.611303 -34.194687 6.978155
v -9.213637 -31.671429 6.268191
v -12.253016 -44.799526 8.892545
v -11.334021 -42.181801 8.485713
v -10.548822 -39.541153 8.073409
v -9.922591 -36.876019 7.639036
v -9.450241 -34.205307 7.080774
v -9.104321 -31.678635 6.337841
v -11.879972 -44.857738 8.940063
v -11.043488 -42.227139 8.522720
v -10.309804 -39.578453 8.103855
v -9.704309 -36.910080 7.666840
v -9.262737 -34.234566 7.104659
v -8.977058 -31.698494 6.354051
v -11.528206 -44.941517 8.821524
v -10.769526 -42.292385 8.430400
v -10.084418 -39.632130 8.027904
v -9.498478 -36.959099 7.597478
v -9.085928 -34.276676 7.045076
v -8.857055 -31.727074 6.313612
v -11.267391 -45.034256 8.560405
v -10.566399 -42.364616 8.227036
v -9.917308 -39.691551 7.860598
v -9.345865 -37.013367 7.444688
v -8.954834 -34.323292 6.913830
v -8.768078 -31.758713 6.224532
v -11.149183 -45.117599 8.208425
v -10.474337 -42.429523 7.952908
v -9.841569 -39.744949 7.635076
v -9.276697 -37.062134 7.238731
v -8.895419 -34.365181 6.736913
v -8.727753 -31.787144 6.104455
v -11.196996 -45.175034 7.835297
v -10.511574 -42.474251 7.662309
v -9.872204 -39.781750 7.396003
v -9.304674 -37.095741 7.020400
v -8.919451 -34.394051 6.549366
v -8.744063 -31.806738 5.977164
v -11.401360 -45.195183 7.514925
v -10.670735 -42.489944 7.412797
v -10.003144 -39.794659 7.190732
v -9.424255 -37.107533 6.832938
v -9.022171 -34.404179 6.388337
v -8.813782 -31.813610 5.867869
v -11.721796 -45.174057 7.310760
v -10.920298 -42.473495 7.253791
v -10.208456 -39.781124 7.059919
v -9.611754 -37.095169 6.713474
v -9.183233 -34.393559 6.285717
v -8.923098 -31.806404 5.798220
v -12.094840 -45.115841 7.263243
v -11.210831 -42.428154 7.216783
v -10.447475 -39.743824 7.029474
v -9.830036 -37.061108 6.685670
v -9.370737 -34.364300 6.261833
v -9.050360 -31.786545 5.782009
v -12.446606 -45.032066 7.381783
v -11.484792 -42.362907 7.309103
v -10.672860 -39.690147 7.105425
v -10.035868 -37.012085 6.755032
v -9.547546 -34.322193 6.321415
v -9.170363 -31.757965 5.822449
vt 0.167977 0.907141
vt 0.160193 0.887070
vt 0.167977 0.866999
vt 0.176618 0.866999
vt 0.176618 0.907141
vt 0.186335 0.866999
vt 0.186335 0.907141
vt 0.195497 0.866999
vt 0.200335 0.866999
vt 0.200335 0.907141
vt 0.195497 0.907141
vt 0.167977 0.907141
vt 0.160193 0.887070
vt 0.167977 0.866999
vt 0.176618 0.866999
vt 0.176618 0.907141
vt 0.186335 0.866999
vt 0.186335 0.907141
vt 0.195497 0.866999
vt 0.200335 0.866999
vt 0.200335 0.907141
vt 0.195497 0.907141
vt 0.167977 0.907141
vt 0.160193 0.887070
vt 0.167977 0.866999
vt 0.176618 0.866999
vt 0.176618 0.907141
vt 0.186335 0.866999
vt 0.186335 0.907141
vt 0.195497 0.866999
vt 0.200335 0.866999
vt 0.200335 0.907141
vt 0.195497 0.907141
vt 0.167977 0.907141
vt 0.160193 0.887070
vt 0.167977 0.866999
vt 0.176618 0.866999
vt 0.176618 0.907141
vt 0.186335 0.866999
vt 0.186335 0.907141
vt 0.195497 0.866999
vt 0.200335 0.866999
vt 0.200335 0.907141
vt 0.195497 0.907141
vt 0.167977 0.907141
vt 0.160193 0.887070
vt 0.167977 0.866999
vt 0.176618 0.866999
vt 0.176618 0.907141
vt 0.186335 0.866999
vt 0.186335 0.907141
vt 0.195497 0.866999
vt 0.200335 0.866999
vt 0.200335 0.907141
vt 0.195497 0.907141
vt 0.167977 0.907141
vt 0.160193 0.887070
vt 0.167977 0.866999
vt 0.176618 0.866999
vt 0.176618 0.907141
vt 0.186335 0.866999
vt 0.186335 0.907141
vt 0.195497 0.866999
vt 0.200335 0.866999
vt 0.200335 0.907141
vt 0.195497 0.907141
vt 0.167977 0.907141
vt 0.160193 0.887070
vt 0.167977 0.866999
vt 0.176618 0.866999
vt 0.176618 0.907141
vt 0.186335 0.866999
vt 0.186335 0.907141
vt 0.195497 0.866999
vt 0.200335 0.866999
vt 0.200335 0.907141
vt 0.195497 0.907141
vt 0.324943 0.892042
vt 0.322542 0.892042
vt 0.322542 0.885320
vt 0.296134 0.892042
vt 0.293733 0.892042
vt 0.293733 0.885320
vt 0.296134 0.898764
vt 0.293733 0.898764
vt 0.296134 0.905486
vt 0.293733 0.905486
vt 0.296134 0.912208
vt 0.293733 0.912208
vt 0.296134 0.918931
vt 0.293733 0.918931
vt 0.327344 0.918931
vt 0.324943 0.918931
vt 0.324943 0.912208
vt 0.324943 0.898764
vt 0.322542 0.898764
vt 0.298534 0.892042
vt 0.296134 0.885320
vt 0.298534 0.898764
vt 0.298534 0.905486
vt 0.298534 0.912208
vt 0.298534 0.918931
vt 0.320141 0.892042
vt 0.317741 0.892042
vt 0.317741 0.885320
vt 0.324943 0.905486
vt 0.322542 0.905486
vt 0.300935 0.892042
vt 0.298534 0.885320
vt 0.300935 0.898764
vt 0.300935 0.905486
vt 0.300935 0.912208
vt 0.300935 0.918931
vt 0.320141 0.898764
vt 0.317741 0.898764
vt 0.322542 0.912208
vt 0.303336 0.892042
vt 0.300935 0.885320
vt 0.303336 0.898764
vt 0.303336 0.905486
vt 0.303336 0.912208
vt 0.303336 0.918931
vt 0.320141 0.905486
vt 0.317741 0.905486
vt 0.322542 0.918931
vt 0.305737 0.892042
vt 0.303336 0.885320
vt 0.305737 0.898764
vt 0.305737 0.905486
vt 0.305737 0.912208
vt 0.305737 0.918931
vt 0.320141 0.912208
vt 0.317741 0.912208
vt 0.320141 0.918931
vt 0.317741 0.918931
vt 0.308138 0.892042
vt 0.305737 0.885320
vt 0.308138 0.898764
vt 0.308138 0.905486
vt 0.308138 0.912208
vt 0.308138 0.918931
vt 0.320141 0.885320
vt 0.327344 0.892042
vt 0.324943 0.885320
vt 0.310538 0.892042
vt 0.308138 0.885320
vt 0.310538 0.898764
vt 0.310538 0.905486
vt 0.310538 0.912208
vt 0.310538 0.918931
vt 0.327344 0.898764
vt 0.312939 0.892042
vt 0.310538 0.885320
vt 0.312939 0.898764
vt 0.312939 0.905486
vt 0.312939 0.912208
vt 0.312939 0.918931
vt 0.327344 0.905486
vt 0.315340 0.892042
vt 0.312939 0.885320
vt 0.315340 0.898764
vt 0.315340 0.905486
vt 0.315340 0.912208
vt 0.315340 0.918931
vt 0.327344 0.912208
vt 0.315340 0.885320
vt 0.327344 0.885320
vn -0.6576 0.7154 -0.2360
vn -0.1548 0.9813 -0.1143
vn 0.0367 0.9974 -0.0625
vn 0.2581 0.9661 0.0036
vn 0.7617 0.6477 -0.0173
vn -0.4181 0.2078 -0.8843
vn -0.2682 0.7161 -0.6444
vn -0.1928 0.8396 -0.5078
vn -0.0971 0.9419 -0.3215
vn 0.3125 0.9433 0.1118
vn 0.3919 0.0881 -0.9158
vn 0.2346 0.6220 -0.7470
vn 0.1606 0.7624 -0.6269
vn 0.0636 0.8878 -0.4559
vn -0.0138 0.9919 0.1260
vn 0.7055 0.5709 -0.4199
vn 0.2064 0.8680 -0.4516
vn 0.0124 0.9046 -0.4261
vn -0.2155 0.9008 -0.3770
vn -0.6609 0.7504 -0.0104
vn 0.7388 0.5292 0.4173
vn 0.4617 0.8856 0.0505
vn 0.3257 0.9418 -0.0835
vn 0.1518 0.9594 -0.2378
vn -0.4025 0.8199 -0.4072
vn 0.0671 0.7618 0.6443
vn 0.1198 0.9866 0.1104
vn 0.1283 0.9878 -0.0884
vn 0.1342 0.9391 -0.3164
vn -0.0642 0.6218 -0.7805
vn -0.6715 0.5926 0.4449
vn -0.3354 0.9349 0.1159
vn -0.1894 0.9818 -0.0110
vn -0.0076 0.9876 -0.1568
vn 0.3055 0.7397 -0.5996
vn -0.3006 0.0824 -0.9502
vn -0.8735 0.3181 -0.3686
vn -0.8735 0.3181 -0.3687
vn -0.8973 0.2535 -0.3614
vn -0.9198 0.1763 -0.3506
vn -0.9323 0.1193 -0.3414
vn -0.9386 0.0833 -0.3349
vn -0.7127 -0.0315 -0.7007
vn -0.3143 0.0232 -0.9490
vn -0.9258 0.3729 0.0612
vn -0.9458 0.3165 0.0725
vn -0.9645 0.2501 0.0851
vn -0.9741 0.2060 0.0931
vn -0.9768 0.1914 0.0957
vn 0.5212 -0.1723 -0.8359
vn -0.3287 -0.0453 -0.9434
vn -0.7943 0.3678 0.4835
vn -0.8063 0.3255 0.4939
vn -0.8177 0.2778 0.5042
vn -0.8221 0.2567 0.5082
vn -0.8191 0.2713 0.5055
vn -0.8191 0.2713 0.5054
vn 0.5176 -0.1968 -0.8327
vn -0.3372 -0.0899 -0.9371
vn -0.4982 0.3013 0.8131
vn -0.5032 0.2774 0.8184
vn -0.5078 0.2536 0.8233
vn -0.5064 0.2613 0.8218
vn -0.5078 0.2535 0.8233
vn -0.4970 0.3067 0.8117
vn 0.5136 -0.2211 -0.8290
vn 0.5150 -0.2132 -0.8303
vn 0.5137 -0.2210 -0.8290
vn -0.3443 -0.1303 -0.9298
vn -0.0956 0.1855 0.9780
vn -0.0963 0.1816 0.9786
vn -0.0956 0.1856 0.9780
vn -0.0963 0.1818 0.9786
vn -0.0962 0.1822 0.9785
vn -0.0962 0.1821 0.9786
vn -0.0896 0.2189 0.9716
vn -0.0761 0.2908 0.9537
vn -0.0761 0.2909 0.9537
vn 0.5150 -0.2130 -0.8303
vn 0.5157 -0.2085 -0.8310
vn 0.5157 -0.2084 -0.8310
vn 0.3287 0.0454 0.9433
vn 0.3310 0.0570 0.9419
vn 0.3287 0.0452 0.9434
vn 0.3310 0.0573 0.9419
vn 0.3350 0.0778 0.9390
vn 0.3349 0.0778 0.9390
vn 0.3456 0.1380 0.9282
vn 0.3592 0.2274 0.9051
vn 0.1176 -0.0558 -0.9915
vn -0.6517 0.2150 -0.7273
vn 0.6883 -0.0908 0.7197
vn 0.6883 -0.0909 0.7197
vn 0.6932 -0.0700 0.7173
vn 0.7001 -0.0387 0.7130
vn 0.7132 0.0345 0.7001
vn 0.7242 0.1293 0.6774
vn 0.1103 -0.1004 -0.9888
vn -0.6726 0.1491 -0.7248
vn 0.9146 -0.1960 0.3536
vn 0.9200 -0.1754 0.3505
vn 0.9273 -0.1442 0.3455
vn 0.9404 -0.0711 0.3326
vn 0.9490 0.0156 0.3150
vn 0.1019 -0.1495 -0.9835
vn -0.6930 0.0710 -0.7174
vn 0.9644 -0.2504 -0.0850
vn 0.9673 -0.2381 -0.0873
vn 0.9644 -0.2502 -0.0851
vn 0.9673 -0.2383 -0.0873
vn 0.9717 -0.2180 -0.0910
vn 0.9822 -0.1578 -0.1016
vn 0.9894 -0.0920 -0.1126
vn 0.0982 -0.1708 -0.9804
vn -0.7050 0.0137 -0.7091
vn 0.8249 -0.2420 -0.5109
vn 0.8241 -0.2462 -0.5102
vn 0.8248 -0.2421 -0.5109
vn 0.8241 -0.2458 -0.5102
vn 0.8241 -0.2458 -0.5103
vn 0.8242 -0.2455 -0.5103
vn 0.8304 -0.2085 -0.5166
vn 0.8354 -0.1721 -0.5221
vn 0.0942 -0.1935 -0.9766
vn -0.1671 0.9801 -0.1067
vn 0.0515 0.9963 -0.0693
vn 0.2956 0.9550 -0.0239
vn 0.6987 0.7109 0.0804
vn -0.2811 0.7097 -0.6460
vn -0.1783 0.8456 -0.5031
vn -0.0506 0.9486 -0.3123
vn 0.1845 0.9769 0.1083
vn 0.2287 0.6129 -0.7564
vn 0.1652 0.7717 -0.6142
vn 0.0848 0.9051 -0.4166
vn -0.0955 0.9952 0.0220
vn 0.2139 0.8609 -0.4616
vn 0.0022 0.9100 -0.4145
vn -0.2367 0.9118 -0.3356
vn -0.6477 0.7485 -0.1421
vn 0.4744 0.8789 0.0495
vn 0.3101 0.9470 -0.0840
vn 0.1055 0.9677 -0.2290
vn -0.2884 0.8325 -0.4730
vn 0.1296 0.9842 0.1208
vn 0.1182 0.9878 -0.1013
vn 0.0971 0.9332 -0.3460
vn 0.0559 0.6647 -0.7450
vn -0.3358 0.9329 0.1302
vn -0.1865 0.9821 -0.0271
vn -0.0075 0.9790 -0.2039
vn 0.3402 0.8033 -0.4888
usemtl World_ap
s 1
f 8/1/1 1/2/1 7/3/1
f 8/1/2 7/3/2 9/4/2
f 11/5/3 9/4/3 10/6/3
f 5/7/4 10/6/4 2/8/4
f 3/9/5 4/10/5 6/11/5
f 19/12/6 12/13/6 18/14/6
f 19/12/7 18/14/7 20/15/7
f 22/16/8 20/15/8 21/17/8
f 16/18/9 21/17/9 13/19/9
f 14/20/10 15/21/10 17/22/10
f 30/23/11 23/24/11 29/25/11
f 30/23/12 29/25/12 31/26/12
f 33/27/13 31/26/13 32/28/13
f 27/29/14 32/28/14 24/30/14
f 25/31/15 26/32/15 28/33/15
f 41/34/16 34/35/16 40/36/16
f 41/34/17 40/36/17 42/37/17
f 44/38/18 42/37/18 43/39/18
f 38/40/19 43/39/19 35/41/19
f 36/42/20 37/43/20 39/44/20
f 52/45/21 45/46/21 51/47/21
f 52/45/22 51/47/22 53/48/22
f 55/49/23 53/48/23 54/50/23
f 49/51/24 54/50/24 46/52/24
f 47/53/25 48/54/25 50/55/25
f 63/56/26 56/57/26 62/58/26
f 63/56/27 62/58/27 64/59/27
f 66/60/28 64/59/28 65/61/28
f 60/62/29 65/61/29 57/63/29
f 58/64/30 59/65/30 61/66/30
f 74/67/31 67/68/31 73/69/31
f 74/67/32 73/69/32 75/70/32
f 77/71/33 75/70/33 76/72/33
f 71/73/34 76/72/34 68/74/34
f 69/75/35 70/76/35 72/77/35
f 157/78/36 151/79/36 150/80/36
f 85/81/37 79/82/37 78/83/38
f 86/84/39 80/85/39 79/82/39
f 87/86/40 81/87/40 80/85/40
f 88/88/41 82/89/41 81/87/41
f 89/90/42 83/91/42 82/89/42
f 83/92/43 161/93/43 160/94/43
f 158/95/44 152/96/44 151/79/44
f 91/97/45 85/81/45 84/98/45
f 92/99/46 86/84/46 85/81/46
f 93/100/47 87/86/47 86/84/47
f 94/101/48 88/88/48 87/86/48
f 95/102/49 89/90/49 88/88/49
f 145/103/50 139/104/50 138/105/50
f 159/106/51 153/107/51 152/96/51
f 97/108/52 91/97/52 90/109/52
f 98/110/53 92/99/53 91/97/53
f 99/111/54 93/100/54 92/99/54
f 100/112/55 94/101/55 93/100/55
f 101/113/56 95/102/56 94/101/57
f 146/114/58 140/115/58 139/104/58
f 160/94/59 154/116/59 153/107/59
f 103/117/60 97/108/60 96/118/60
f 104/119/61 98/110/61 97/108/61
f 105/120/62 99/111/63 98/110/64
f 106/121/63 100/112/63 99/111/63
f 107/122/65 101/113/65 100/112/65
f 147/123/66 141/124/67 140/115/68
f 161/93/69 155/125/69 154/116/69
f 109/126/70 103/117/71 102/127/72
f 110/128/73 104/119/74 103/117/71
f 111/129/75 105/120/75 104/119/74
f 112/130/76 106/121/76 105/120/76
f 113/131/77 107/122/77 106/121/78
f 148/132/79 142/133/80 141/124/67
f 149/134/81 143/135/81 142/133/80
f 115/136/82 109/126/83 108/137/84
f 116/138/85 110/128/85 109/126/83
f 117/139/86 111/129/87 110/128/86
f 118/140/88 112/130/88 111/129/88
f 119/141/89 113/131/89 112/130/89
f 151/79/90 145/103/90 144/142/90
f 79/143/91 157/78/91 156/144/91
f 121/145/92 115/136/92 114/146/93
f 122/147/94 116/138/94 115/136/94
f 123/148/95 117/139/95 116/138/95
f 124/149/96 118/140/96 117/139/96
f 125/150/97 119/141/97 118/140/97
f 152/96/98 146/114/98 145/103/98
f 80/151/99 158/95/99 157/78/99
f 127/152/100 121/145/100 120/153/100
f 128/154/101 122/147/101 121/145/101
f 129/155/102 123/148/102 122/147/102
f 130/156/103 124/149/103 123/148/103
f 131/157/104 125/150/104 124/149/104
f 153/107/105 147/123/105 146/114/105
f 81/158/106 159/106/106 158/95/106
f 133/159/107 127/152/108 126/160/109
f 134/161/110 128/154/110 127/152/108
f 135/162/111 129/155/111 128/154/111
f 136/163/112 130/156/112 129/155/112
f 137/164/113 131/157/113 130/156/113
f 154/116/114 148/132/114 147/123/114
f 82/165/115 160/94/115 159/106/115
f 139/104/116 133/159/117 132/166/118
f 140/115/119 134/161/120 133/159/117
f 141/124/121 135/162/121 134/161/120
f 142/133/122 136/163/122 135/162/122
f 143/135/123 137/164/123 136/163/123
f 155/125/124 149/134/124 148/132/124
f 11/5/125 8/1/125 9/4/125
f 5/7/126 11/5/126 10/6/126
f 6/11/127 5/7/127 2/8/127
f 2/8/128 3/9/128 6/11/128
f 22/16/129 19/12/129 20/15/129
f 16/18/130 22/16/130 21/17/130
f 17/22/131 16/18/131 13/19/131
f 13/19/132 14/20/132 17/22/132
f 33/27/133 30/23/133 31/26/133
f 27/29/134 33/27/134 32/28/134
f 28/33/135 27/29/135 24/30/135
f 24/30/136 25/31/136 28/33/136
f 44/38/137 41/34/137 42/37/137
f 38/40/138 44/38/138 43/39/138
f 39/44/139 38/40/139 35/41/139
f 35/41/140 36/42/140 39/44/140
f 55/49/141 52/45/141 53/48/141
f 49/51/142 55/49/142 54/50/142
f 50/55/143 49/51/143 46/52/143
f 46/52/144 47/53/144 50/55/144
f 66/60/145 63/56/145 64/59/145
f 60/62/146 66/60/146 65/61/146
f 61/66/147 60/62/147 57/63/147
f 57/63/148 58/64/148 61/66/148
f 77/71/149 74/67/149 75/70/149
f 71/73/150 77/71/150 76/72/150
f 72/77/151 71/73/151 68/74/151
f 68/74/152 69/75/152 72/77/152
f 156/144/36 157/78/36 150/80/36
f 84/98/38 85/81/37 78/83/38
f 85/81/39 86/84/39 79/82/39
f 86/84/40 87/86/40 80/85/40
f 87/86/41 88/88/41 81/87/41
f 88/88/42 89/90/42 82/89/42
f 82/165/43 83/92/43 160/94/43
f 157/78/44 158/95/44 151/79/44
f 90/109/45 91/97/45 84/98/45
f 91/97/46 92/99/46 85/81/46
f 92/99/47 93/100/47 86/84/47
f 93/100/48 94/101/48 87/86/48
f 94/101/49 95/102/49 88/88/49
f 144/142/50 145/103/50 138/105/50
f 158/95/51 159/106/51 152/96/51
f 96/118/52 97/108/52 90/109/52
f 97/108/53 98/110/53 91/97/53
f 98/110/54 99/111/54 92/99/54
f 99/111/55 100/112/55 93/100/55
f 100/112/57 101/113/56 94/101/57
f 145/103/58 146/114/58 139/104/58
f 159/106/59 160/94/59 153/107/59
f 102/127/60 103/117/60 96/118/60
f 103/117/61 104/119/61 97/108/61
f 104/119/64 105/120/62 98/110/64
f 105/120/62 106/121/63 99/111/63
f 106/121/65 107/122/65 100/112/65
f 146/114/68 147/123/66 140/115/68
f 160/94/69 161/93/69 154/116/69
f 108/137/72 109/126/70 102/127/72
f 109/126/70 110/128/73 103/117/71
f 110/128/73 111/129/75 104/119/74
f 111/129/76 112/130/76 105/120/76
f 112/130/78 113/131/77 106/121/78
f 147/123/66 148/132/79 141/124/67
f 148/132/79 149/134/81 142/133/80
f 114/146/84 115/136/82 108/137/84
f 115/136/82 116/138/85 109/126/83
f 116/138/86 117/139/86 110/128/86
f 117/139/88 118/140/88 111/129/88
f 118/140/89 119/141/89 112/130/89
f 150/80/90 151/79/90 144/142/90
f 78/167/91 79/143/91 156/144/91
f 120/153/93 121/145/92 114/146/93
f 121/145/94 122/147/94 115/136/94
f 122/147/95 123/148/95 116/138/95
f 123/148/96 124/149/96 117/139/96
f 124/149/97 125/150/97 118/140/97
f 151/79/98 152/96/98 145/103/98
f 79/143/99 80/151/99 157/78/99
f 126/160/100 127/152/100 120/153/100
f 127/152/101 128/154/101 121/145/101
f 128/154/102 129/155/102 122/147/102
f 129/155/103 130/156/103 123/148/103
f 130/156/104 131/157/104 124/149/104
f 152/96/105 153/107/105 146/114/105
f 80/151/106 81/158/106 158/95/106
f 132/166/109 133/159/107 126/160/109
f 133/159/107 134/161/110 127/152/108
f 134/161/111 135/162/111 128/154/111
f 135/162/112 136/163/112 129/155/112
f 136/163/113 137/164/113 130/156/113
f 153/107/114 154/116/114 147/123/114
f 81/158/115 82/165/115 159/106/115
f 138/105/118 139/104/116 132/166/118
f 139/104/116 140/115/119 133/159/117
f 140/115/119 141/124/121 134/161/120
f 141/124/122 142/133/122 135/162/122
f 142/133/123 143/135/123 136/163/123
f 154/116/124 155/125/124 148/132/124
