# Blender v2.93.0 OBJ File: ''
# www.blender.org
mtllib pine_tree.mtl
o Firtree_86_Mesh.443
v -12.462220 1.053875 -0.234611
v -12.473905 0.761753 -0.529069
v -12.484531 0.552750 -0.028940
v -0.917885 0.554960 -0.197791
v -0.929574 0.262838 -0.492248
v -0.940201 0.053835 0.007881
v -12.463604 1.052440 0.180327
v -0.919272 0.553532 0.217145
v -12.477249 0.758301 0.472678
v -0.932916 0.259386 0.509498
v -12.495161 0.343747 0.471189
v -0.950826 -0.155161 0.508008
v -12.506845 0.051625 0.176731
v -0.962511 -0.447283 0.213550
v -12.505461 0.053053 -0.238204
v -0.961124 -0.445855 -0.201385
v -12.491817 0.347200 -0.530557
v -0.947480 -0.151709 -0.493738
v -3.382668 -3.264507 1.382922
v -3.303363 -1.281959 3.381325
v -7.304687 -1.724093 4.837231
v 3.969013 -1.408625 0.515684
v 3.997734 -0.690705 1.239346
v 11.278939 -0.490598 0.033362
v -3.079806 3.537477 -1.408755
v -3.159111 1.554926 -3.407156
v -7.098020 2.340214 -4.888387
v 4.078690 1.054512 -0.495239
v 4.049968 0.336591 -1.218900
v -3.373269 -3.254804 -1.433145
v -7.418303 -4.564425 1.974190
v 3.972415 -1.405112 -0.504069
v -3.089209 3.527774 1.407310
v -6.984400 5.180544 -2.025347
v 4.075283 1.050996 0.524516
v -3.280668 -1.258529 -3.417258
v -7.404837 -4.550517 -2.060287
v 4.005951 -0.682217 -1.222560
v -3.181809 1.531500 3.391426
v -6.997869 5.166638 2.009131
v 4.041751 0.328104 1.243005
v -7.272168 -1.690521 -4.902860
v -7.130534 2.306645 4.851703
v 3.362517 -2.678783 1.044969
v 3.421408 -1.206620 2.528908
v 0.450174 -1.534934 3.610010
v 8.821598 -1.300674 0.400990
v 8.842924 -0.767573 0.938356
v 14.249676 -0.618986 0.042837
v 3.587410 2.372115 -1.028025
v 3.528525 0.899947 -2.511963
v 0.603636 1.483070 -3.611870
v 8.903037 0.528357 -0.349682
v 8.881716 -0.004744 -0.887046
v 3.369498 -2.671582 -1.046136
v 0.365805 -3.644056 1.484024
v 8.824126 -1.298068 -0.356240
v 3.580431 2.364905 1.063081
v 0.688006 3.592194 -1.485883
v 8.900514 0.525747 0.407549
v 3.438257 -1.189220 -2.519464
v 0.375807 -3.633726 -1.511830
v 8.849029 -0.761275 -0.889763
v 3.511672 0.882548 2.536410
v 0.678004 3.581870 1.509969
v 8.875607 -0.011046 0.941072
v 0.474318 -1.510006 -3.622616
v 0.579492 1.458143 3.620757
v 0.220750 -2.927616 1.192551
v 0.288589 -1.231676 2.902048
v -3.134267 -1.609894 4.147477
v 6.509614 -1.340033 0.450688
v 6.534180 -0.725898 1.069732
v 12.762759 -0.554727 0.038095
v 0.479827 2.891020 -1.195537
v 0.411988 1.195084 -2.905035
v -2.957479 1.866841 -4.172127
v 6.603433 0.767012 -0.414087
v 6.578864 0.152878 -1.033130
v 0.228788 -2.919315 -1.216400
v -3.231460 -4.039602 1.698340
v 6.512526 -1.337030 -0.421641
v 0.471785 2.882720 1.213414
v -2.860286 4.296554 -1.722991
v 6.600522 0.764006 0.458244
v 0.308004 -1.211632 -2.913678
v -3.219939 -4.027706 -1.752881
v 6.541209 -0.718644 -1.036260
v 0.392575 1.175044 2.910689
v -2.871810 4.284658 1.728230
v 6.571835 0.145621 1.072862
v -3.106454 -1.581177 -4.184508
v -2.985295 1.838129 4.159858
vt 0.200673 0.934564
vt 0.195108 0.921129
vt 0.214108 0.921129
vt 0.307165 0.973370
vt 0.301491 0.973370
vt 0.301491 0.927974
vt 0.227543 0.934564
vt 0.214108 0.921129
vt 0.233108 0.921129
vt 0.214108 0.940129
vt 0.312840 0.973370
vt 0.307165 0.927974
vt 0.214108 0.940129
vt 0.227543 0.934564
vt 0.318514 0.973370
vt 0.312840 0.927974
vt 0.200673 0.934564
vt 0.233108 0.921129
vt 0.324189 0.973370
vt 0.318514 0.927974
vt 0.195108 0.921129
vt 0.227543 0.907694
vt 0.329863 0.973370
vt 0.324189 0.927974
vt 0.200673 0.907694
vt 0.214108 0.902129
vt 0.335538 0.973370
vt 0.329863 0.927974
vt 0.214108 0.902129
vt 0.200673 0.907694
vt 0.341212 0.973370
vt 0.335538 0.927974
vt 0.227543 0.907694
vt 0.346886 0.973370
vt 0.341212 0.927974
vt 0.218858 0.914796
vt 0.214108 0.914796
vt 0.214108 0.902129
vt 0.218858 0.927463
vt 0.214108 0.927463
vt 0.218858 0.940129
vt 0.199858 0.914796
vt 0.195108 0.914796
vt 0.195108 0.902129
vt 0.199858 0.927463
vt 0.195108 0.927463
vt 0.199858 0.940129
vt 0.223608 0.914796
vt 0.218858 0.902129
vt 0.223608 0.927463
vt 0.223608 0.940129
vt 0.204608 0.914796
vt 0.199858 0.902129
vt 0.204608 0.927463
vt 0.204608 0.940129
vt 0.228358 0.914796
vt 0.223608 0.902129
vt 0.228358 0.927463
vt 0.228358 0.940129
vt 0.209358 0.914796
vt 0.204608 0.902129
vt 0.209358 0.927463
vt 0.209358 0.940129
vt 0.233108 0.914796
vt 0.228358 0.902129
vt 0.233108 0.927463
vt 0.233108 0.940129
vt 0.209358 0.902129
vt 0.214108 0.940129
vt 0.218858 0.914796
vt 0.214108 0.914796
vt 0.214108 0.902129
vt 0.218858 0.927463
vt 0.214108 0.927463
vt 0.218858 0.940129
vt 0.199858 0.914796
vt 0.195108 0.914796
vt 0.195108 0.902129
vt 0.199858 0.927463
vt 0.195108 0.927463
vt 0.199858 0.940129
vt 0.223608 0.914796
vt 0.218858 0.902129
vt 0.223608 0.927463
vt 0.223608 0.940129
vt 0.204608 0.914796
vt 0.199858 0.902129
vt 0.204608 0.927463
vt 0.204608 0.940129
vt 0.228358 0.914796
vt 0.223608 0.902129
vt 0.228358 0.927463
vt 0.228358 0.940129
vt 0.209358 0.914796
vt 0.204608 0.902129
vt 0.209358 0.927463
vt 0.209358 0.940129
vt 0.233108 0.914796
vt 0.228358 0.902129
vt 0.233108 0.927463
vt 0.233108 0.940129
vt 0.209358 0.902129
vt 0.214108 0.940129
vt 0.218858 0.914796
vt 0.214108 0.914796
vt 0.214108 0.902129
vt 0.218858 0.927463
vt 0.214108 0.927463
vt 0.218858 0.940129
vt 0.199858 0.914796
vt 0.195108 0.914796
vt 0.195108 0.902129
vt 0.199858 0.927463
vt 0.195108 0.927463
vt 0.199858 0.940129
vt 0.223608 0.914796
vt 0.218858 0.902129
vt 0.223608 0.927463
vt 0.223608 0.940129
vt 0.204608 0.914796
vt 0.199858 0.902129
vt 0.204608 0.927463
vt 0.204608 0.940129
vt 0.228358 0.914796
vt 0.223608 0.902129
vt 0.228358 0.927463
vt 0.228358 0.940129
vt 0.209358 0.914796
vt 0.204608 0.902129
vt 0.209358 0.927463
vt 0.209358 0.940129
vt 0.233108 0.914796
vt 0.228358 0.902129
vt 0.233108 0.927463
vt 0.233108 0.940129
vt 0.209358 0.902129
vt 0.214108 0.940129
vt 0.346886 0.927974
vt 0.233108 0.902129
vt 0.233108 0.902129
vt 0.233108 0.902129
vn -0.9991 0.0432 -0.0032
vn 0.0389 0.8638 -0.5024
vn 0.0141 0.2559 -0.9666
vn 0.0247 0.5079 -0.8610
vn 0.9991 -0.0432 0.0032
vn 0.0409 0.9658 0.2562
vn 0.0426 0.9675 -0.2493
vn 0.0189 0.5020 0.8647
vn 0.0356 0.8603 0.5085
vn -0.0141 -0.2558 0.9666
vn 0.0077 0.2491 0.9684
vn -0.0389 -0.8638 0.5024
vn -0.0247 -0.5079 0.8610
vn -0.0409 -0.9658 -0.2562
vn -0.0426 -0.9675 0.2493
vn -0.0189 -0.5020 -0.8647
vn -0.0356 -0.8603 -0.5085
vn -0.0077 -0.2491 -0.9684
vn 0.3010 -0.8845 0.3566
vn 0.3212 -0.3785 0.8681
vn 0.3455 -0.4880 0.8015
vn 0.2178 -0.8716 0.4393
vn 0.2405 -0.3097 0.9199
vn 0.3783 0.8551 -0.3544
vn 0.3582 0.3491 -0.8659
vn 0.3915 0.4562 -0.7991
vn 0.2950 0.8494 -0.4376
vn 0.2722 0.2875 -0.9183
vn 0.3034 -0.8809 -0.3632
vn 0.3289 -0.9152 0.2329
vn 0.2165 -0.9296 -0.2982
vn 0.3759 0.8516 0.3653
vn 0.4081 0.8833 -0.2306
vn 0.2951 0.9072 0.2998
vn 0.3272 -0.3700 -0.8695
vn 0.3354 -0.8156 -0.4715
vn 0.2402 -0.4493 -0.8605
vn 0.3522 0.3406 0.8717
vn 0.4016 0.7837 0.4738
vn 0.2715 0.4274 0.8623
vn 0.3614 -0.2475 -0.8990
vn 0.3757 0.2157 0.9013
vn 0.3581 0.3492 -0.8659
vn 0.2938 0.8497 -0.4379
vn 0.2722 0.2876 -0.9183
vn 0.3760 0.8516 0.3653
vn 0.3009 -0.8845 0.3566
vn 0.3211 -0.3785 0.8681
vn 0.3784 0.8551 -0.3544
vn 0.2951 0.9072 0.2999
vn 0.3271 -0.3700 -0.8695
usemtl World_ap
s 1
f 1/1/1 2/2/1 3/3/1
f 4/4/2 5/5/3 2/6/4
f 4/7/5 6/8/5 5/9/5
f 7/10/1 1/1/1 3/3/1
f 8/11/6 4/4/2 1/12/7
f 8/13/5 6/8/5 4/7/5
f 9/14/1 7/10/1 3/3/1
f 10/15/8 8/11/6 7/16/9
f 10/17/5 6/8/5 8/13/5
f 11/18/1 9/14/1 3/3/1
f 12/19/10 10/15/8 9/20/11
f 12/21/5 6/8/5 10/17/5
f 13/22/1 11/18/1 3/3/1
f 14/23/12 12/19/10 11/24/13
f 14/25/5 6/8/5 12/21/5
f 15/26/1 13/22/1 3/3/1
f 16/27/14 14/23/12 13/28/15
f 16/29/5 6/8/5 14/25/5
f 17/30/1 15/26/1 3/3/1
f 18/31/16 16/27/14 15/32/17
f 18/33/5 6/8/5 16/29/5
f 2/2/1 17/30/1 3/3/1
f 5/34/3 18/31/16 17/35/18
f 5/9/5 6/8/5 18/33/5
f 19/36/19 20/37/20 21/38/21
f 22/39/22 23/40/23 20/37/20
f 22/39/22 24/41/5 23/40/23
f 25/42/24 26/43/25 27/44/26
f 28/45/27 29/46/28 26/43/25
f 28/45/27 24/47/5 29/46/28
f 30/48/29 19/36/19 31/49/30
f 32/50/31 22/39/22 19/36/19
f 32/50/31 24/51/5 22/39/22
f 33/52/32 25/42/24 34/53/33
f 35/54/34 28/45/27 25/42/24
f 35/54/34 24/55/5 28/45/27
f 36/56/35 30/48/29 37/57/36
f 38/58/37 32/50/31 30/48/29
f 38/58/37 24/59/5 32/50/31
f 39/60/38 33/52/32 40/61/39
f 41/62/40 35/54/34 33/52/32
f 41/62/40 24/63/5 35/54/34
f 26/64/25 36/56/35 42/65/41
f 29/66/28 38/58/37 36/56/35
f 29/66/28 24/67/5 38/58/37
f 20/37/20 39/60/38 43/68/42
f 23/40/23 41/62/40 39/60/38
f 23/40/23 24/69/5 41/62/40
f 44/70/19 45/71/20 46/72/21
f 47/73/22 48/74/23 45/71/20
f 47/73/22 49/75/5 48/74/23
f 50/76/24 51/77/43 52/78/26
f 53/79/44 54/80/45 51/77/43
f 53/79/44 49/81/5 54/80/45
f 55/82/29 44/70/19 56/83/30
f 57/84/31 47/73/22 44/70/19
f 57/84/31 49/85/5 47/73/22
f 58/86/46 50/76/24 59/87/33
f 60/88/34 53/79/44 50/76/24
f 60/88/34 49/89/5 53/79/44
f 61/90/35 55/82/29 62/91/36
f 63/92/37 57/84/31 55/82/29
f 63/92/37 49/93/5 57/84/31
f 64/94/38 58/86/46 65/95/39
f 66/96/40 60/88/34 58/86/46
f 66/96/40 49/97/5 60/88/34
f 51/98/43 61/90/35 67/99/41
f 54/100/45 63/92/37 61/90/35
f 54/100/45 49/101/5 63/92/37
f 45/71/20 64/94/38 68/102/42
f 48/74/23 66/96/40 64/94/38
f 48/74/23 49/103/5 66/96/40
f 69/104/47 70/105/48 71/106/21
f 72/107/22 73/108/23 70/105/48
f 72/107/22 74/109/5 73/108/23
f 75/110/49 76/111/25 77/112/26
f 78/113/27 79/114/28 76/111/25
f 78/113/27 74/115/5 79/114/28
f 80/116/29 69/104/47 81/117/30
f 82/118/31 72/107/22 69/104/47
f 82/118/31 74/119/5 72/107/22
f 83/120/46 75/110/49 84/121/33
f 85/122/50 78/113/27 75/110/49
f 85/122/50 74/123/5 78/113/27
f 86/124/51 80/116/29 87/125/36
f 88/126/37 82/118/31 80/116/29
f 88/126/37 74/127/5 82/118/31
f 89/128/38 83/120/46 90/129/39
f 91/130/40 85/122/50 83/120/46
f 91/130/40 74/131/5 85/122/50
f 76/132/25 86/124/51 92/133/41
f 79/134/28 88/126/37 86/124/51
f 79/134/28 74/135/5 88/126/37
f 70/105/48 89/128/38 93/136/42
f 73/108/23 91/130/40 89/128/38
f 73/108/23 74/137/5 91/130/40
f 1/12/7 4/4/2 2/6/4
f 7/16/9 8/11/6 1/12/7
f 9/20/11 10/15/8 7/16/9
f 11/24/13 12/19/10 9/20/11
f 13/28/15 14/23/12 11/24/13
f 15/32/17 16/27/14 13/28/15
f 17/35/18 18/31/16 15/32/17
f 2/138/4 5/34/3 17/35/18
f 31/49/30 19/36/19 21/38/21
f 19/36/19 22/39/22 20/37/20
f 34/53/33 25/42/24 27/44/26
f 25/42/24 28/45/27 26/43/25
f 37/57/36 30/48/29 31/49/30
f 30/48/29 32/50/31 19/36/19
f 40/61/39 33/52/32 34/53/33
f 33/52/32 35/54/34 25/42/24
f 42/65/41 36/56/35 37/57/36
f 36/56/35 38/58/37 30/48/29
f 43/68/42 39/60/38 40/61/39
f 39/60/38 41/62/40 33/52/32
f 27/139/26 26/64/25 42/65/41
f 26/64/25 29/66/28 36/56/35
f 21/38/21 20/37/20 43/68/42
f 20/37/20 23/40/23 39/60/38
f 56/83/30 44/70/19 46/72/21
f 44/70/19 47/73/22 45/71/20
f 59/87/33 50/76/24 52/78/26
f 50/76/24 53/79/44 51/77/43
f 62/91/36 55/82/29 56/83/30
f 55/82/29 57/84/31 44/70/19
f 65/95/39 58/86/46 59/87/33
f 58/86/46 60/88/34 50/76/24
f 67/99/41 61/90/35 62/91/36
f 61/90/35 63/92/37 55/82/29
f 68/102/42 64/94/38 65/95/39
f 64/94/38 66/96/40 58/86/46
f 52/140/26 51/98/43 67/99/41
f 51/98/43 54/100/45 61/90/35
f 46/72/21 45/71/20 68/102/42
f 45/71/20 48/74/23 64/94/38
f 81/117/30 69/104/47 71/106/21
f 69/104/47 72/107/22 70/105/48
f 84/121/33 75/110/49 77/112/26
f 75/110/49 78/113/27 76/111/25
f 87/125/36 80/116/29 81/117/30
f 80/116/29 82/118/31 69/104/47
f 90/129/39 83/120/46 84/121/33
f 83/120/46 85/122/50 75/110/49
f 92/133/41 86/124/51 87/125/36
f 86/124/51 88/126/37 80/116/29
f 93/136/42 89/128/38 90/129/39
f 89/128/38 91/130/40 83/120/46
f 77/141/26 76/132/25 92/133/41
f 76/132/25 79/134/28 86/124/51
f 71/106/21 70/105/48 93/136/42
f 70/105/48 73/108/23 89/128/38
