# Blender v2.93.0 OBJ File: ''
# www.blender.org
mtllib tree.mtl
o Firtree_86_Mesh.443
v 66.072235 27.444773 10.159402
v 64.721237 38.913548 10.564210
v 65.740601 27.420820 9.731186
v 64.389603 38.889595 10.135994
v 65.537796 27.384218 10.091335
v 64.186798 38.852997 10.496143
v 65.648064 27.383089 10.491357
v 64.297058 38.851864 10.896165
v 66.006798 27.418091 10.696924
v 64.655800 38.886868 11.101732
v 66.403870 27.468723 10.587618
v 65.052864 38.937500 10.992426
v 66.606674 27.505325 10.227468
v 65.255669 38.974102 10.632277
v 66.496414 27.506456 9.827447
v 65.145409 38.975235 10.232255
v 66.137672 27.471453 9.621880
v 64.786667 38.940231 10.026689
v 62.241489 32.463188 6.163821
v 62.750683 36.477650 7.560440
v 63.337318 43.788940 9.668642
v 60.269604 32.107304 9.665592
v 61.374306 36.229240 10.004676
v 62.838905 43.698990 10.553749
v 63.303303 51.055408 10.975435
v 61.341702 32.096310 13.555049
v 62.122627 36.221565 12.719517
v 63.109890 43.696209 11.536848
v 64.829758 32.436649 15.553801
v 64.557289 36.459122 14.114646
v 63.991531 43.782234 12.042053
v 68.690521 32.928951 14.491006
v 67.252106 36.802753 13.372815
v 64.967377 43.906670 11.773420
v 70.662407 33.284840 10.989235
v 68.628479 37.051163 10.928579
v 65.465790 43.996620 10.888313
v 69.590309 33.295830 7.099778
v 67.880157 37.058834 8.213737
v 65.194809 43.999397 9.905214
v 66.102249 32.955494 5.101027
v 65.445496 36.821278 6.818609
v 64.313164 43.913376 9.400009
v 62.167183 40.200817 7.506681
v 62.545288 43.181808 8.543758
v 62.980904 48.610897 10.109230
v 60.702934 39.936550 10.106965
v 61.523243 42.997345 10.358756
v 62.610802 48.544098 10.766478
v 61.499031 39.928387 12.995131
v 62.078922 42.991650 12.374696
v 62.812023 48.542038 11.496490
v 64.089134 40.181110 14.479328
v 63.886810 43.168053 13.410666
v 63.466698 48.605911 11.871635
v 66.955994 40.546677 13.690136
v 65.887878 43.423218 12.859810
v 64.191322 48.698315 11.672160
v 62.955647 54.006702 11.079605
v 68.420242 40.810944 11.089853
v 66.909920 43.607674 11.044812
v 64.561424 48.765110 11.014912
v 67.624138 40.819107 8.201688
v 66.354248 43.613373 9.028872
v 64.360207 48.767174 10.284900
v 65.034042 40.566383 6.717490
v 64.546356 43.436970 7.992903
v 63.705532 48.703297 9.909754
v 62.221348 36.625137 6.911457
v 62.656925 40.059235 8.106171
v 63.158756 46.313545 9.909594
v 63.129658 52.529518 11.027466
v 60.534531 36.320702 9.906984
v 61.479530 39.846737 10.197048
v 62.732395 46.236599 10.666742
v 61.451637 36.311295 13.234150
v 62.119667 39.840172 12.519409
v 62.964203 46.234222 11.507717
v 64.435432 36.602432 14.943947
v 64.202354 40.043388 13.712847
v 63.718388 46.307808 11.939885
v 67.738052 37.023567 14.034798
v 66.507584 40.337337 13.078261
v 64.553154 46.414253 11.710089
v 69.424866 37.328003 11.039270
v 67.684982 40.549835 10.987384
v 64.979515 46.491203 10.952939
v 68.507759 37.337406 7.712105
v 67.044846 40.556396 8.665022
v 64.747711 46.493580 10.111965
v 65.523964 37.046268 6.002309
v 64.962151 40.353184 7.471584
v 63.993526 46.419991 9.679796
vt 0.200673 0.934564
vt 0.195108 0.921129
vt 0.214108 0.921129
vt 0.307165 0.973370
vt 0.301491 0.973370
vt 0.301491 0.927974
vt 0.227543 0.934564
vt 0.214108 0.921129
vt 0.233108 0.921129
vt 0.214108 0.940129
vt 0.312840 0.973370
vt 0.307165 0.927974
vt 0.214108 0.940129
vt 0.227543 0.934564
vt 0.318514 0.973370
vt 0.312840 0.927974
vt 0.200673 0.934564
vt 0.233108 0.921129
vt 0.324189 0.973370
vt 0.318514 0.927974
vt 0.195108 0.921129
vt 0.227543 0.907694
vt 0.329863 0.973370
vt 0.324189 0.927974
vt 0.200673 0.907694
vt 0.214108 0.902129
vt 0.335538 0.973370
vt 0.329863 0.927974
vt 0.214108 0.902129
vt 0.200673 0.907694
vt 0.341212 0.973370
vt 0.335538 0.927974
vt 0.227543 0.907694
vt 0.346886 0.973370
vt 0.341212 0.927974
vt 0.218858 0.914796
vt 0.214108 0.914796
vt 0.214108 0.902129
vt 0.218858 0.927463
vt 0.214108 0.927463
vt 0.218858 0.940129
vt 0.199858 0.914796
vt 0.195108 0.914796
vt 0.195108 0.902129
vt 0.199858 0.927463
vt 0.195108 0.927463
vt 0.199858 0.940129
vt 0.223608 0.914796
vt 0.218858 0.902129
vt 0.223608 0.927463
vt 0.223608 0.940129
vt 0.204608 0.914796
vt 0.199858 0.902129
vt 0.204608 0.927463
vt 0.204608 0.940129
vt 0.228358 0.914796
vt 0.223608 0.902129
vt 0.228358 0.927463
vt 0.228358 0.940129
vt 0.209358 0.914796
vt 0.204608 0.902129
vt 0.209358 0.927463
vt 0.209358 0.940129
vt 0.233108 0.914796
vt 0.228358 0.902129
vt 0.233108 0.927463
vt 0.233108 0.940129
vt 0.209358 0.902129
vt 0.214108 0.940129
vt 0.218858 0.914796
vt 0.214108 0.914796
vt 0.214108 0.902129
vt 0.218858 0.927463
vt 0.214108 0.927463
vt 0.218858 0.940129
vt 0.199858 0.914796
vt 0.195108 0.914796
vt 0.195108 0.902129
vt 0.199858 0.927463
vt 0.195108 0.927463
vt 0.199858 0.940129
vt 0.223608 0.914796
vt 0.218858 0.902129
vt 0.223608 0.927463
vt 0.223608 0.940129
vt 0.204608 0.914796
vt 0.199858 0.902129
vt 0.204608 0.927463
vt 0.204608 0.940129
vt 0.228358 0.914796
vt 0.223608 0.902129
vt 0.228358 0.927463
vt 0.228358 0.940129
vt 0.209358 0.914796
vt 0.204608 0.902129
vt 0.209358 0.927463
vt 0.209358 0.940129
vt 0.233108 0.914796
vt 0.228358 0.902129
vt 0.233108 0.927463
vt 0.233108 0.940129
vt 0.209358 0.902129
vt 0.214108 0.940129
vt 0.218858 0.914796
vt 0.214108 0.914796
vt 0.214108 0.902129
vt 0.218858 0.927463
vt 0.214108 0.927463
vt 0.218858 0.940129
vt 0.199858 0.914796
vt 0.195108 0.914796
vt 0.195108 0.902129
vt 0.199858 0.927463
vt 0.195108 0.927463
vt 0.199858 0.940129
vt 0.223608 0.914796
vt 0.218858 0.902129
vt 0.223608 0.927463
vt 0.223608 0.940129
vt 0.204608 0.914796
vt 0.199858 0.902129
vt 0.204608 0.927463
vt 0.204608 0.940129
vt 0.228358 0.914796
vt 0.223608 0.902129
vt 0.228358 0.927463
vt 0.228358 0.940129
vt 0.209358 0.914796
vt 0.204608 0.902129
vt 0.209358 0.927463
vt 0.209358 0.940129
vt 0.233108 0.914796
vt 0.228358 0.902129
vt 0.233108 0.927463
vt 0.233108 0.940129
vt 0.209358 0.902129
vt 0.214108 0.940129
vt 0.346886 0.927974
vt 0.233108 0.902129
vt 0.233108 0.902129
vt 0.233108 0.902129
vn 0.1169 -0.9925 -0.0350
vn -0.9600 -0.1039 -0.2600
vn -0.4990 -0.0282 -0.8662
vn -0.7130 -0.0593 -0.6987
vn -0.1169 0.9925 0.0350
vn -0.8587 -0.1187 0.4985
vn -0.9930 -0.1174 0.0112
vn -0.2544 -0.0640 0.9650
vn -0.6914 -0.1067 0.7146
vn 0.4990 0.0282 0.8662
vn 0.0153 -0.0335 0.9993
vn 0.9600 0.1039 0.2600
vn 0.7130 0.0593 0.6987
vn 0.8587 0.1187 -0.4985
vn 0.9930 0.1174 -0.0112
vn 0.2544 0.0640 -0.9650
vn 0.6914 0.1067 -0.7146
vn -0.0153 0.0335 -0.9993
vn 0.8875 0.4426 0.1286
vn 0.5366 0.3791 0.7539
vn 0.6196 0.4212 0.6624
vn 0.9101 0.3584 0.2082
vn 0.4975 0.2882 0.8182
vn -0.9670 0.2323 -0.1048
vn -0.6161 0.2957 -0.7300
vn -0.7058 0.3110 -0.6365
vn -0.9701 0.1510 -0.1902
vn -0.5575 0.2211 -0.8002
vn 0.6952 0.4444 -0.5650
vn 0.8799 0.4752 0.0025
vn 0.7720 0.3677 -0.5185
vn -0.7747 0.2305 0.5888
vn -0.9661 0.2570 0.0233
vn -0.8320 0.1416 0.5365
vn 0.0724 0.3836 -0.9207
vn 0.5995 0.4652 -0.6512
vn 0.1641 0.3109 -0.9362
vn -0.1519 0.2913 0.9445
vn -0.6858 0.2670 0.6771
vn -0.2241 0.1984 0.9542
vn -0.0573 0.3972 -0.9159
vn -0.0290 0.3350 0.9418
vn 0.5366 0.3792 0.7539
vn -0.9702 0.1498 -0.1904
vn 0.8875 0.4425 0.1286
vn 0.6952 0.4443 -0.5650
vn -0.8319 0.1416 0.5365
usemtl World_ap
s 1
f 5/1/1 3/2/1 1/3/1
f 6/4/2 4/5/3 3/6/4
f 6/7/5 2/8/5 4/9/5
f 7/10/1 5/1/1 1/3/1
f 8/11/6 6/4/2 5/12/7
f 8/13/5 2/8/5 6/7/5
f 9/14/1 7/10/1 1/3/1
f 10/15/8 8/11/6 7/16/9
f 10/17/5 2/8/5 8/13/5
f 11/18/1 9/14/1 1/3/1
f 12/19/10 10/15/8 9/20/11
f 12/21/5 2/8/5 10/17/5
f 13/22/1 11/18/1 1/3/1
f 14/23/12 12/19/10 11/24/13
f 14/25/5 2/8/5 12/21/5
f 15/26/1 13/22/1 1/3/1
f 16/27/14 14/23/12 13/28/15
f 16/29/5 2/8/5 14/25/5
f 17/30/1 15/26/1 1/3/1
f 18/31/16 16/27/14 15/32/17
f 18/33/5 2/8/5 16/29/5
f 3/2/1 17/30/1 1/3/1
f 4/34/3 18/31/16 17/35/18
f 4/9/5 2/8/5 18/33/5
f 36/36/19 33/37/20 32/38/21
f 37/39/22 34/40/23 33/37/20
f 37/39/22 25/41/5 34/40/23
f 23/42/24 20/43/25 19/44/26
f 24/45/27 21/46/28 20/43/25
f 24/45/27 25/47/5 21/46/28
f 39/48/29 36/36/19 35/49/30
f 40/50/31 37/39/22 36/36/19
f 40/50/31 25/51/5 37/39/22
f 27/52/32 23/42/24 22/53/33
f 28/54/34 24/45/27 23/42/24
f 28/54/34 25/55/5 24/45/27
f 42/56/35 39/48/29 38/57/36
f 43/58/37 40/50/31 39/48/29
f 43/58/37 25/59/5 40/50/31
f 30/60/38 27/52/32 26/61/39
f 31/62/40 28/54/34 27/52/32
f 31/62/40 25/63/5 28/54/34
f 20/64/25 42/56/35 41/65/41
f 21/66/28 43/58/37 42/56/35
f 21/66/28 25/67/5 43/58/37
f 33/37/20 30/60/38 29/68/42
f 34/40/23 31/62/40 30/60/38
f 34/40/23 25/69/5 31/62/40
f 61/70/19 57/71/43 56/72/21
f 62/73/22 58/74/23 57/71/43
f 62/73/22 59/75/5 58/74/23
f 48/76/24 45/77/25 44/78/26
f 49/79/44 46/80/28 45/77/25
f 49/79/44 59/81/5 46/80/28
f 64/82/29 61/70/19 60/83/30
f 65/84/31 62/73/22 61/70/19
f 65/84/31 59/85/5 62/73/22
f 51/86/32 48/76/24 47/87/33
f 52/88/34 49/79/44 48/76/24
f 52/88/34 59/89/5 49/79/44
f 67/90/35 64/82/29 63/91/36
f 68/92/37 65/84/31 64/82/29
f 68/92/37 59/93/5 65/84/31
f 54/94/38 51/86/32 50/95/39
f 55/96/40 52/88/34 51/86/32
f 55/96/40 59/97/5 52/88/34
f 45/98/25 67/90/35 66/99/41
f 46/100/28 68/92/37 67/90/35
f 46/100/28 59/101/5 68/92/37
f 57/71/43 54/94/38 53/102/42
f 58/74/23 55/96/40 54/94/38
f 58/74/23 59/103/5 55/96/40
f 86/104/45 83/105/20 82/106/21
f 87/107/22 84/108/23 83/105/20
f 87/107/22 72/109/5 84/108/23
f 74/110/24 70/111/25 69/112/26
f 75/113/27 71/114/28 70/111/25
f 75/113/27 72/115/5 71/114/28
f 89/116/46 86/104/45 85/117/30
f 90/118/31 87/107/22 86/104/45
f 90/118/31 72/119/5 87/107/22
f 77/120/32 74/110/24 73/121/33
f 78/122/47 75/113/27 74/110/24
f 78/122/47 72/123/5 75/113/27
f 92/124/35 89/116/46 88/125/36
f 93/126/37 90/118/31 89/116/46
f 93/126/37 72/127/5 90/118/31
f 80/128/38 77/120/32 76/129/39
f 81/130/40 78/122/47 77/120/32
f 81/130/40 72/131/5 78/122/47
f 70/132/25 92/124/35 91/133/41
f 71/134/28 93/126/37 92/124/35
f 71/134/28 72/135/5 93/126/37
f 83/105/20 80/128/38 79/136/42
f 84/108/23 81/130/40 80/128/38
f 84/108/23 72/137/5 81/130/40
f 5/12/7 6/4/2 3/6/4
f 7/16/9 8/11/6 5/12/7
f 9/20/11 10/15/8 7/16/9
f 11/24/13 12/19/10 9/20/11
f 13/28/15 14/23/12 11/24/13
f 15/32/17 16/27/14 13/28/15
f 17/35/18 18/31/16 15/32/17
f 3/138/4 4/34/3 17/35/18
f 35/49/30 36/36/19 32/38/21
f 36/36/19 37/39/22 33/37/20
f 22/53/33 23/42/24 19/44/26
f 23/42/24 24/45/27 20/43/25
f 38/57/36 39/48/29 35/49/30
f 39/48/29 40/50/31 36/36/19
f 26/61/39 27/52/32 22/53/33
f 27/52/32 28/54/34 23/42/24
f 41/65/41 42/56/35 38/57/36
f 42/56/35 43/58/37 39/48/29
f 29/68/42 30/60/38 26/61/39
f 30/60/38 31/62/40 27/52/32
f 19/139/26 20/64/25 41/65/41
f 20/64/25 21/66/28 42/56/35
f 32/38/21 33/37/20 29/68/42
f 33/37/20 34/40/23 30/60/38
f 60/83/30 61/70/19 56/72/21
f 61/70/19 62/73/22 57/71/43
f 47/87/33 48/76/24 44/78/26
f 48/76/24 49/79/44 45/77/25
f 63/91/36 64/82/29 60/83/30
f 64/82/29 65/84/31 61/70/19
f 50/95/39 51/86/32 47/87/33
f 51/86/32 52/88/34 48/76/24
f 66/99/41 67/90/35 63/91/36
f 67/90/35 68/92/37 64/82/29
f 53/102/42 54/94/38 50/95/39
f 54/94/38 55/96/40 51/86/32
f 44/140/26 45/98/25 66/99/41
f 45/98/25 46/100/28 67/90/35
f 56/72/21 57/71/43 53/102/42
f 57/71/43 58/74/23 54/94/38
f 85/117/30 86/104/45 82/106/21
f 86/104/45 87/107/22 83/105/20
f 73/121/33 74/110/24 69/112/26
f 74/110/24 75/113/27 70/111/25
f 88/125/36 89/116/46 85/117/30
f 89/116/46 90/118/31 86/104/45
f 76/129/39 77/120/32 73/121/33
f 77/120/32 78/122/47 74/110/24
f 91/133/41 92/124/35 88/125/36
f 92/124/35 93/126/37 89/116/46
f 79/136/42 80/128/38 76/129/39
f 80/128/38 81/130/40 77/120/32
f 69/141/26 70/132/25 91/133/41
f 70/132/25 71/134/28 92/124/35
f 82/106/21 83/105/20 79/136/42
f 83/105/20 84/108/23 80/128/38
